<svg xmlns="http://www.w3.org/2000/svg" viewBox="0 0 512 512" role="img" aria-label="Tempest Miku storm-cat mark">
  <defs>
    <linearGradient id="bg" x1="72" y1="42" x2="440" y2="470" gradientUnits="userSpaceOnUse">
      <stop stop-color="#173F43"/>
      <stop offset="1" stop-color="#071D20"/>
    </linearGradient>
    <linearGradient id="cat" x1="136" y1="122" x2="376" y2="402" gradientUnits="userSpaceOnUse">
      <stop stop-color="#73DDD3"/>
      <stop offset="1" stop-color="#39C5BB"/>
    </linearGradient>
  </defs>
  <rect x="16" y="16" width="480" height="480" rx="116" fill="url(#bg)"/>
  <path d="M96 213 132 84l99 74c17-6 33-8 49-8s32 2 49 8l99-74 36 129c22 28 31 59 31 95 0 96-74 150-215 150S65 404 65 308c0-36 9-67 31-95Z" fill="url(#cat)"/>
  <path d="m297 181-84 124h65l-26 105 116-143h-64l40-86h-47Z" fill="#FF7B70"/>
</svg>
